# xmcd
#
# Track frame offsets:
# 150
# 16407
# 29685
# 41397
# 57382
# 72075
# 85835
# 100472
# 111760
# 125030
# 141160
# 155852
# 169037
# 185882
# 200847
#
# Disc length: 2888 seconds
#
#
# Revision: 0
# Processed by: cddbd v1.5.2PL0 Copyright (c) Steve Scherf et al.
# Submitted via: FreeRIP 2.90 
#
DISCID=e20b460f
DTITLE=Clube Country Barretos - Clube Country Barretos
DYEAR=2008
DGENRE=Rodeio
TTITLE0=Burro na Sombra - Jander and Jardel
TTITLE1=Quero Mais - Trio Alto Astral
TTITLE2=Sobra Mais Mulher Pra Mim -Teodoro and Sampaio
TTITLE3=Ela Me Deixa Doidão - Rico and Rei
TTITLE4=É Eu Bem - Roberto and Meirinho
TTITLE5=Doce Veneno - Ulysses and Cristiano
TTITLE6=Ta Estressado - Rogério and Ricardo
TTITLE7=A Voz do Amor - Saulo and Marcio
TTITLE8=Solidão Não Mora Aqui - Dayane Tavares
TTITLE9=Nossa Canção de Amor - Marcelo Viola and Ricardo
TTITLE10=Jogo do Amor - Luan SAntana
TTITLE11=Aniversario do Taiada - Trio Bate o Pé
TTITLE12=Proxima Parada - Henrique and Ruan
TTITLE13=Baile de Verão - Marciano
TTITLE14=É Nóis na Fita - Robert and Ronan
EXTD=Post by Tosh 2005
EXTT0=
EXTT1=
EXTT2=
EXTT3=
EXTT4=
EXTT5=
EXTT6=
EXTT7=
EXTT8=
EXTT9=
EXTT10=
EXTT11=
EXTT12=
EXTT13=
EXTT14=
PLAYORDER=
